<?xml version="1.0" standalone="no"?>
<!DOCTYPE svg PUBLIC "-//W3C//DTD SVG 20010904//EN"
 "http://www.w3.org/TR/2001/REC-SVG-20010904/DTD/svg10.dtd">
<svg version="1.0" xmlns="http://www.w3.org/2000/svg"
 width="800.000000pt" height="800.000000pt" viewBox="0 0 800.000000 800.000000"
 preserveAspectRatio="xMidYMid meet">

<g transform="translate(0.000000,800.000000) scale(0.100000,-0.100000)"
fill="#000000" stroke="none">
<path d="M0 4000 l0 -4000 4000 0 4000 0 0 4000 0 4000 -4000 0 -4000 0 0
-4000z m4285 1820 c67 -140 266 -554 442 -920 176 -366 423 -879 548 -1140
125 -261 278 -580 341 -708 179 -363 385 -795 381 -799 -2 -1 -911 -2 -2019
-1 l-2015 3 369 765 c203 421 406 844 452 940 46 96 188 391 316 655 128 264
339 703 470 975 131 272 277 576 325 675 l88 180 90 -185 c49 -102 145 -300
212 -440z"/>
<path d="M3972 4504 c-5 -11 -32 -68 -60 -129 -27 -60 -125 -272 -217 -470
-332 -716 -395 -854 -395 -864 0 -8 212 -11 686 -11 649 0 686 1 681 18 -3 9
-94 206 -202 437 -108 231 -221 472 -250 535 -216 469 -233 502 -243 484z"/>
</g>
</svg>
