<?xml version="1.0" encoding="utf-8"?>
<!-- Generator: Adobe Illustrator 24.1.2, SVG Export Plug-In . SVG Version: 6.00 Build 0)  -->
<svg version="1.1" id="Layer_1" xmlns="http://www.w3.org/2000/svg" xmlns:xlink="http://www.w3.org/1999/xlink" x="0px" y="0px"
	 viewBox="0 0 3450 558.5" style="enable-background:new 0 0 3450 558.5;" xml:space="preserve">
<style type="text/css">
	.st0{fill:#FC0101;}
	.st1{fill:#FE8D01;}
	.st2{fill:#FFFF01;}
	.st3{fill:#008C00;}
	.st4{fill:#00C1C0;}
	.st5{fill:#40019A;}
	.st6{fill:#8F008E;}
	.st7{fill:#FE6AB4;}
</style>
<path class="st0" d="M636.6,462.8c-9.6,5.1-19.6,9.6-30.2,13.4h0.3C617.2,472.4,627.1,468,636.6,462.8c20.6-10.9,38.9-25,54.9-42.1
	l0.2-0.5C675.7,437.4,657.3,451.6,636.6,462.8z"/>
<path class="st0" d="M636.6,462.9c-9.5,5.1-19.4,9.5-29.9,13.3h-0.3C617,472.4,627,467.9,636.6,462.9c20.7-11.3,39.1-25.5,55.1-42.7
	l24.8-53.5c-25,20.9-59,33.7-97.2,33.7h-28.8V154.1h28.8c24.2,0,46.8,5.2,66.4,14.2c2.6,1.2,5.2,2.5,7.7,3.8
	c1.3,0.7,2.5,1.4,3.7,2.1c2.5,1.4,4.9,2.9,7.2,4.4c4.7,3.1,9.1,6.4,13.3,10c8.4,7.1,15.7,15.1,21.9,23.9c-12-35.2-33-66.8-60.8-91.3
	c-21.1-18.7-45.5-33.3-72-43.2h-97.2v398.4h96.6c0.2-0.1,0.4-0.2,0.5-0.2c-0.1,0-0.2,0.1-0.2,0.1h0.3H618c17.6,0,34.4-1.8,50.2-5.3
	l23.3-50.2C675.5,437.8,657.2,451.9,636.6,462.9z"/>
<path class="st0" d="M617.9,78h-11c26.4,9.8,50.9,24.4,72,43.2c27.9,24.7,48.9,56.1,60.8,91.3c9.1,26.8,12.3,55,9.8,82.8l50-108.1
	C769.2,119.6,703,78,617.9,78z"/>
<polygon class="st0" points="415.6,478.9 415.9,478.9 415.8,478.7 "/>
<path class="st1" d="M1147.2,346.8c-0.7,17.7-3.5,45.4-14,72.4C1143.7,392.3,1146.6,364.5,1147.2,346.8z"/>
<path class="st1" d="M817.8,269.9c-0.2-8.5-0.9-17-2.1-25.5c0.8,6.3,1.4,12.6,1.8,18.9c-0.5-7.9-1.4-15.7-2.6-23.5c0,0,0,0,0,0
	c0-0.3,0-0.6-0.1-0.9c0-0.1,0-0.1,0-0.2c-0.1-0.8-0.2-1.5-0.4-2.4c-2-11.5-5-22.9-8.8-33.9c0-0.1,0-0.1-0.1-0.2
	c-0.2-0.8-0.6-1.7-0.8-2.5c-1-2.7-2.1-5.5-3.2-8.1l-53.3,115.2c-1.5,10.2-3.8,20.3-6.9,30.2c-0.6,1.6-1.7,4.6-1.7,4.6
	c-4.7,6.8-10.2,13.2-16.4,19.1L700,410.8l-0.3,0.6l-27.1,58.5c55.1-13.4,98.5-47.3,122.9-95.3c1.1-2.3,2.1-4.5,3.1-6.8
	c7.1-15.4,12.3-32.1,15.5-50c1.3-6.7,2.2-13.5,2.9-20.4c0.6-6.8,0.8-13.6,0.8-20.6C818,274.4,817.9,272.2,817.8,269.9z"/>
<path class="st1" d="M1236.4,77h-89.1v251.2c0,0.7,0.3,5.5,0.1,13c0,1.1,0,2.2-0.1,3.5c0-1.2,0.1-2.4,0.1-3.5
	c-3.7,40.3-25.6,67.4-71,67.4c-50.2,0-71.6-33.1-71.6-80.4v-250h-84.9V333c0,93.3,58.4,152.6,155.5,153c0,0,0,0,0,0
	c-0.1,0-0.2,0.1-0.3,0.1c28.7,0,54.3-4.9,76.1-14.1l85.2-184.1V77z M1129.9,427.4c0,0,0-0.1,0.1-0.1
	C1129.9,427.3,1129.9,427.3,1129.9,427.4z M1130.8,425.4c0.1-0.3,0.2-0.5,0.3-0.8C1131,424.9,1130.9,425.1,1130.8,425.4z
	 M1131.6,423.4c0.2-0.5,0.4-1,0.6-1.4C1132,422.4,1131.8,422.9,1131.6,423.4z M1132.5,421.3c0.3-0.7,0.6-1.4,0.8-2.1
	C1133,420,1132.7,420.7,1132.5,421.3z M1133.3,419.2c10.4-26.9,13.3-54.7,14-72.4C1146.6,364.5,1143.7,392.3,1133.3,419.2z"/>
<path class="st1" d="M1147.4,341.2c0,1.1,0,2.2-0.1,3.5C1147.4,343.4,1147.4,342.3,1147.4,341.2z"/>
<path class="st1" d="M691.7,420.2l-0.2,0.5c2.8-3,5.6-6.1,8.2-9.3l0.3-0.6C697.3,414,694.6,417.2,691.7,420.2z"/>
<path class="st1" d="M691.5,420.7L668.2,471c1.5-0.3,3-0.7,4.4-1l27.1-58.5C697.1,414.6,694.3,417.7,691.5,420.7z"/>
<path class="st1" d="M749.5,295.3c-0.3,3.8-0.8,7.6-1.4,11.5l53.3-115.2c-0.6-1.5-1.3-2.9-1.9-4.4L749.5,295.3z"/>
<path class="st1" d="M700,410.8l23.2-50.1c-2.2,2.1-4.4,4.1-6.7,6l-24.8,53.5C694.6,417.2,697.3,414,700,410.8z"/>
<path class="st2" d="M1236.4,333.1V290l-84,181.5C1205.7,448.4,1236.4,399.3,1236.4,333.1z"/>
<polygon class="st2" points="1612,78 1610.9,78 1610.9,154.1 1612,154.1 1704.6,154.1 1704.6,314.3 1814,78 "/>
<polygon class="st2" points="1585.6,400.9 1439.1,400.9 1439,78 1350.5,78 1350.5,400.9 1350.5,476.5 1585.6,476.5 "/>
<path class="st2" d="M1151.2,472c0.4-0.2,0.8-0.3,1.2-0.5l84-181.5v-2.1L1151.2,472z"/>
<polygon class="st3" points="1704.6,476.4 1785.6,476.4 1785.6,154.1 1878.2,154.1 1878.3,154.1 1878.3,78 1817.9,78 1704.6,322.8 
	"/>
<polygon class="st3" points="2180,154.3 2262.1,154.3 2272.9,130.9 2272.9,78.2 2006.1,78.2 2006.1,154.1 2006.1,154.3 
	2098.9,154.3 2098.9,476.6 2112.9,476.6 2180,331.6 "/>
<polygon class="st3" points="1704.6,314.3 1704.6,322.8 1817.9,78 1814,78 "/>
<rect x="2391.7" y="78.2" class="st4" width="80.1" height="398.4"/>
<polygon class="st4" points="2272.9,154.3 2272.9,133 2263,154.3 "/>
<polygon class="st4" points="2180,476.6 2180,333.7 2113.9,476.6 "/>
<polygon class="st4" points="2693.7,67.5 2665.8,176.9 2665.2,179.2 2665.2,179.2 2589.5,476.7 2596.3,476.7 2744,157.6 "/>
<polygon class="st4" points="2112.9,476.6 2113.9,476.6 2180,333.7 2180,331.6 "/>
<polygon class="st4" points="2262.1,154.3 2263,154.3 2272.9,133 2272.9,130.9 "/>
<polygon class="st5" points="3196.6,78 3196.6,217.7 3261.2,78.2 "/>
<polygon class="st5" points="2982.1,64 2838,326.3 2744.5,158.6 2597.2,476.7 2667.4,476.7 2719,276.2 2838.3,491.5 2883.8,408.4 
	2883.6,408.1 2956.6,276.2 3008.2,476.7 3076.7,476.7 3082.9,463.3 "/>
<polygon class="st5" points="2744,157.6 2596.3,476.7 2597.2,476.7 2744.5,158.6 "/>
<polygon class="st6" points="3196.6,476.7 3282,476.7 3421.9,476.7 3421.9,400.5 3282,400.5 3282,311.8 3407.3,311.8 3407.3,235.7 
	3282,235.7 3282,154.2 3421.9,154.3 3421.9,78.2 3282,78.2 3265.1,78.2 3196.6,226.2 "/>
<polygon class="st6" points="3086.3,476.7 3084.3,468.8 3080.7,476.7 "/>
<polygon class="st6" points="3196.6,217.7 3196.6,226.2 3265.1,78.2 3261.2,78.2 "/>
<polygon class="st6" points="3076.7,476.7 3080.7,476.7 3084.3,468.8 3082.9,463.3 "/>
<polygon class="st7" points="155.6,401.2 221.8,254.9 254.5,327 299.2,230.3 265.5,158.5 221.8,65.4 178.2,158.5 64.3,401.2 
	27.8,478.9 120.4,478.9 184.1,478.9 220.1,401.2 "/>
<polygon class="st0" points="288.1,401.2 221.1,401.2 185.1,478.9 323.3,478.9 415.6,478.9 415.8,478.7 379.4,401.2 299.7,231.3 
	254.9,328 "/>
<polygon class="st0" points="220.1,401.2 184.1,478.9 185.1,478.9 221.1,401.2 "/>
<polygon class="st0" points="254.5,327 254.9,328 299.7,231.3 299.2,230.3 "/>
</svg>
